<!-- Copyright 2007 Creative Commons <https://mirrors.creativecommons.org/presskit/cc-license-buttons-thin.svg>. SPDX-License-Identifier: CC-BY-3.0 -->
<svg height="15" width="80" xmlns="http://www.w3.org/2000/svg" xmlns:xlink="http://www.w3.org/1999/xlink">
 <clipPath id="a">
  <path d="m172 239.12h20.614v12.484h-20.614z"/>
 </clipPath>
 <g transform="matrix(.9875 0 0 .93335 -323.9 -356.81)">
  <g transform="translate(158 145)">
   <path d="m170.5 237.86h80v15h-80z" fill="#fff" stroke="#000" stroke-width="1.0416"/>
   <path d="m172 239.36h77v12h-77z"/>
   <path d="m172 239.38v12h20.335c1.3086-1.7503 2.1918-3.7845 2.1918-6 0-2.2007-.86793-4.2572-2.1605-6h-20.366z" fill="#abb1aa"/>
   <g clip-path="url(#a)" transform="matrix(.96125 0 0 .96125 6.8342 9.507)">
    <path cx="296.35416" cy="264.3577" d="m190.06 245.36c.0025 3.892-3.1509 7.0487-7.0426 7.0512-3.8917.00249-7.0489-3.1507-7.0512-7.0426v-.00854c-.00226-3.892 3.1509-7.0487 7.0426-7.0509 3.8922-.00249 7.0489 3.1507 7.0512 7.0427v.00826z" fill="#fff" rx="22.939548" ry="22.939548" type="arc"/>
    <path d="m188.75 239.62c1.5627 1.5627 2.3441 3.4764 2.3441 5.7398 0 2.2639-.76791 4.1571-2.3037 5.6796-1.6299 1.6036-3.5562 2.4051-5.7789 2.4051-2.1959 0-4.0888-.795-5.6784-2.385-1.5898-1.5898-2.3845-3.4895-2.3845-5.6997 0-2.2097.79476-4.123 2.3845-5.7398 1.5491-1.5632 3.4421-2.3446 5.6784-2.3446 2.2634 0 4.1759.78145 5.7385 2.3446zm-10.365 1.0513c-1.3212 1.3344-1.9815 2.8976-1.9815 4.6907 0 1.7926.65381 3.3425 1.9612 4.6496 1.3076 1.3076 2.8642 1.9612 4.6704 1.9612s3.3761-.66007 4.7106-1.981c1.267-1.2269 1.9007-2.7694 1.9007-4.6298 0-1.8463-.64403-3.4134-1.9313-4.7008-1.287-1.287-2.847-1.9308-4.68-1.9308-1.833.00001-3.3834.64705-4.6501 1.9408zm3.4767 3.902c-.20188-.44014-.50407-.66034-.9071-.66034-.71249 0-1.0686.47976-1.0686 1.4388 0 .95924.35612 1.4385 1.0686 1.4385.47049 0 .80654-.23347 1.0082-.70144l.9876.5259c-.47074.83638-1.177 1.2547-2.1187 1.2547-.72627 0-1.3081-.22269-1.745-.66759-.43763-.44539-.65581-1.0593-.65581-1.842 0-.76893.2252-1.3794.67587-1.8315.45067-.45218 1.0119-.67816 1.6848-.67816.99538 0 1.7081.39225 2.139 1.176l-1.0689.54724zm4.6464 0c-.20214-.44014-.49831-.66034-.88881-.66034-.72678 0-1.0904.47976-1.0904 1.4388 0 .95924.36365 1.4385 1.0904 1.4385.47125 0 .80127-.23347.98963-.70144l1.0097.5259c-.46999.83638-1.1752 1.2547-2.1152 1.2547-.72528 0-1.3058-.22269-1.7425-.66759-.43587-.44539-.65429-1.0593-.65429-1.842 0-.76893.22168-1.3794.66483-1.8315.44289-.45218 1.0067-.67816 1.6918-.67816.99362 0 1.7054.39225 2.1347 1.176l-1.0899.54724z"/>
   </g>
  </g>
  <path d="m357.42 389.69c.24548 0 .43161-.05358.5584-.16075.12678-.10717.19017-.26523.19018-.47422-.00001-.20629-.0634-.36302-.19018-.47019-.12679-.10984-.31292-.16476-.5584-.16477h-.86186v1.2699h.86186m.0526 2.6242c.31292 0 .5476-.06563.70407-.19691.15915-.13128.23873-.32954.23873-.59479 0-.25987-.07824-.45411-.23469-.58271-.15645-.13128-.39249-.19692-.70811-.19692h-.91446v1.5713h.91446m1.4486-2.1581c.33449.09645.59345.27462.7769.53449.18342.25989.27514.57871.27515.95647-.00001.57871-.19694 1.01-.59077 1.294-.39384.28399-.9927.42599-1.7966.42599h-2.5856v-6h2.3388c.83893 0 1.4459.12592 1.8208.37776.37765.25184.56648.65506.56648 1.2096 0 .29203-.06878.54119-.20635.74749-.13758.20361-.3372.35498-.59886.45411m.91657-2.789h1.7035l1.3758 2.138 1.3757-2.138h1.7076l-2.3024 3.4722v2.5278h-1.5578v-2.5278zm5.3209 3.0462h2.5411v1.1695h-2.5411zm7.9632-2.8573v1.2699c-.3318-.14736-.65551-.25854-.97111-.33356-.31562-.07502-.61371-.11253-.89424-.11253-.37227 0-.64741.05091-.82545.15271-.17805.10182-.26706.25989-.26706.47422 0 .16076.05934.28668.17803.37776.1214.08842.33989.16477.65551.22907l.6636.13261c.67168.13397 1.1492.33759 1.4324.61086.28324.27328.42486.66176.42487 1.1654-.00001.66177-.19827 1.1547-.59481 1.4789-.39385.3215-.99675.48225-1.8087.48225-.38305 0-.76745-.03617-1.1532-.10851-.38576-.07233-.77151-.17951-1.1572-.3215v-1.3061c.38574.20362.758.35767 1.1168.46215.36147.10181.70945.15272 1.044.15272.33989 0 .6002-.05626.78094-.16879.18073-.11252.2711-.27328.2711-.48225 0-.18754-.06204-.33222-.18612-.43403-.1214-.1018-.36553-.1929-.73239-.27327l-.6029-.13262c-.60425-.1286-1.0466-.33356-1.3272-.61487-.27785-.28131-.41677-.66041-.41677-1.1373 0-.59744.19422-1.0569.58268-1.3784.38844-.3215.94683-.48225 1.6752-.48225.3318 0 .67303.02545 1.0237.07636.35067.04823.71349.1219 1.0885.22102m5.4342 4.718h-2.4359l-.3844 1.0931h-1.5659l2.2376-6h1.8573l2.2376 6h-1.5659l-.38036-1.0931m-2.0474-1.1132h1.6549l-.82544-2.3871-.8295 2.3871" fill="#fff"/>
 </g>
</svg>
